<?xml version="1.0" encoding="UTF-8"?>
<svg width="800px" height="600px" viewBox="0 0 800 600" version="1.1" xmlns="http://www.w3.org/2000/svg" xmlns:xlink="http://www.w3.org/1999/xlink">
    <!-- Generator: Sketch 62 (91390) - https://sketch.com -->
    <title>Quick Start Guide/Service Engine/0 Cover Page</title>
    <desc>Created with Sketch.</desc>
    <defs>
        <path d="M41.5681063,37.7186898 C42.9501661,37.7186898 44.013289,38.0423892 44.3322259,38.150289 L44.3322259,41.495183 C44.2259136,41.3872832 43.269103,40.8477842 41.7807309,40.8477842 C39.8671096,40.8477842 38.4850498,42.2504817 38.4850498,44.1926782 C38.4850498,46.026975 39.7607973,47.5375723 41.7807309,47.5375723 C43.1627907,47.5375723 44.2259136,46.9980732 44.3322259,46.8901734 L44.3322259,50.2350674 C43.9069767,50.3429672 42.9501661,50.6666667 41.5681063,50.6666667 C38.166113,50.6666667 35.1893688,48.1849711 35.1893688,44.1926782 C35.1893688,40.5240848 37.8471761,37.7186898 41.5681063,37.7186898 Z M11.4817276,37.7186898 C12.8637874,37.7186898 13.9269103,38.0423892 14.2458472,38.150289 L14.2458472,41.495183 C14.1395349,41.3872832 13.1827243,40.8477842 11.6943522,40.8477842 C9.7807309,40.8477842 8.3986711,42.2504817 8.3986711,44.1926782 C8.3986711,46.026975 9.6744186,47.5375723 11.6943522,47.5375723 C13.076412,47.5375723 14.1395349,46.9980732 14.2458472,46.8901734 L14.2458472,50.2350674 C13.820598,50.3429672 12.8637874,50.6666667 11.4817276,50.6666667 C8.07973422,50.6666667 5.10299003,48.1849711 5.10299003,44.1926782 C5.10299003,40.5240848 7.76079734,37.7186898 11.4817276,37.7186898 Z M20.8372093,37.7186898 L20.8372093,50.5587669 L18.179402,50.5587669 L18.179402,37.7186898 L20.8372093,37.7186898 Z M52.9435216,37.61079 C56.2392027,37.7186898 58.7906977,40.5240848 58.7906977,44.0847784 C58.7906977,47.6454721 56.345515,50.5587669 52.9435216,50.5587669 C49.5415282,50.5587669 47.0963455,47.6454721 47.0963455,44.0847784 C47.0963455,40.5240848 49.5415282,37.61079 52.9435216,37.61079 Z M29.0232558,37.61079 C30.4053156,37.61079 31.7873754,37.9344894 31.7873754,38.0423892 L31.7873754,40.7398844 L31.742313,40.7250833 C31.5078135,40.6493018 30.4053156,40.3082852 29.5548173,40.3082852 C28.3853821,40.3082852 27.7475083,40.7398844 27.7475083,41.2793834 C27.7475083,42.0346821 28.5980066,42.2504817 29.0232558,42.4662813 L29.7674419,42.7899807 C31.6810631,43.4373796 32.5315615,44.8400771 32.5315615,46.3506744 C32.5315615,49.4797688 29.9800664,50.5587669 27.8538206,50.5587669 C26.3654485,50.5587669 24.8770764,50.2350674 24.7707641,50.2350674 L24.7707641,47.3217726 C24.9833887,47.4296724 26.2591362,47.7533719 27.5348837,47.7533719 C28.9169435,47.7533719 29.6611296,47.3217726 29.6611296,46.566474 C29.6611296,45.9190751 29.1295681,45.5953757 28.3853821,45.3795761 C28.1727575,45.2716763 27.9601329,45.2716763 27.7475083,45.1637765 C26.1528239,44.6242775 24.7707641,43.5452794 24.7707641,41.495183 C24.7707641,39.1213873 26.3654485,37.61079 29.0232558,37.61079 Z M52.8372093,40.8477842 C51.1362126,40.8477842 49.9667774,42.3583815 49.9667774,44.0847784 C49.9667774,45.9190751 51.2425249,47.3217726 52.8372093,47.3217726 C54.538206,47.3217726 55.7076412,45.8111753 55.7076412,44.0847784 C55.8139535,42.3583815 54.538206,40.8477842 52.8372093,40.8477842 Z M16.9036545,13.3333333 C17.5415282,13.3333333 18.179402,14.088632 18.179402,14.9518304 L18.179402,14.9518304 L18.179402,31.7842004 C18.179402,32.6473988 17.6478405,33.4026975 16.9036545,33.4026975 C16.2657807,33.4026975 15.627907,32.6473988 15.627907,31.7842004 L15.627907,31.7842004 L15.627907,14.9518304 C15.627907,14.088632 16.1594684,13.3333333 16.9036545,13.3333333 Z M48.2657807,13.3333333 C49.0099668,13.3333333 49.5415282,14.088632 49.5415282,14.9518304 L49.5415282,14.9518304 L49.5415282,31.7842004 C49.5415282,32.6473988 49.0099668,33.4026975 48.2657807,33.4026975 C47.627907,33.4026975 46.9900332,32.6473988 46.9900332,31.7842004 L46.9900332,31.7842004 L46.9900332,14.9518304 C46.9900332,14.088632 47.5215947,13.3333333 48.2657807,13.3333333 Z M9.03654485,19.0520231 C9.6744186,19.0520231 10.3122924,19.8073218 10.3122924,20.5626204 L10.3122924,20.5626204 L10.3122924,27.6840077 C10.3122924,28.5472062 9.7807309,29.194605 9.03654485,29.194605 C8.3986711,29.194605 7.76079734,28.5472062 7.76079734,27.6840077 L7.76079734,27.6840077 L7.76079734,20.5626204 C7.76079734,19.699422 8.2923588,19.0520231 9.03654485,19.0520231 Z M24.7707641,19.0520231 C25.4086379,19.0520231 26.0465116,19.8073218 26.0465116,20.5626204 L26.0465116,20.5626204 L26.0465116,27.6840077 C26.0465116,28.5472062 25.5149502,29.194605 24.7707641,29.194605 C24.1328904,29.194605 23.4950166,28.5472062 23.4950166,27.6840077 L23.4950166,27.6840077 L23.4950166,20.5626204 C23.4950166,19.699422 24.0265781,19.0520231 24.7707641,19.0520231 Z M40.5049834,19.0520231 C41.1428571,19.0520231 41.7807309,19.8073218 41.7807309,20.5626204 L41.7807309,20.5626204 L41.7807309,27.6840077 C41.7807309,28.5472062 41.2491694,29.194605 40.5049834,29.194605 C39.7607973,29.194605 39.2292359,28.5472062 39.2292359,27.6840077 L39.2292359,27.6840077 L39.2292359,20.5626204 C39.2292359,19.699422 39.7607973,19.0520231 40.5049834,19.0520231 Z M54.8571429,19.0520231 C55.6013289,19.0520231 56.1328904,19.8073218 56.1328904,20.5626204 L56.1328904,20.5626204 L56.1328904,27.6840077 C56.1328904,28.5472062 55.6013289,29.194605 54.8571429,29.194605 C54.1129568,29.194605 53.5813953,28.5472062 53.5813953,27.6840077 L53.5813953,27.6840077 L53.5813953,20.5626204 C53.5813953,19.699422 54.1129568,19.0520231 54.8571429,19.0520231 Z M1.27574751,23.3680154 C2.01993355,23.3680154 2.55149502,24.0154143 2.55149502,24.7707129 L2.55149502,24.7707129 L2.55149502,27.6840077 C2.55149502,28.4393064 2.01993355,29.0867052 1.27574751,29.0867052 C0.637873754,29.0867052 0,28.4393064 0,27.6840077 L0,27.6840077 L0,24.7707129 C0,24.0154143 0.531561462,23.3680154 1.27574751,23.3680154 Z M32.6378738,23.3680154 C33.2757475,23.3680154 33.9136213,24.0154143 33.9136213,24.7707129 L33.9136213,24.7707129 L33.9136213,27.6840077 C33.9136213,28.4393064 33.3820598,29.0867052 32.6378738,29.0867052 C32,29.0867052 31.3621262,28.4393064 31.3621262,27.6840077 L31.3621262,27.6840077 L31.3621262,24.7707129 C31.3621262,24.0154143 31.8936877,23.3680154 32.6378738,23.3680154 Z M62.7242525,23.3680154 C63.3621262,23.3680154 64,24.0154143 64,24.7707129 L64,24.7707129 L64,27.6840077 C64,28.4393064 63.4684385,29.0867052 62.7242525,29.0867052 C61.9800664,29.0867052 61.448505,28.4393064 61.448505,27.6840077 L61.448505,27.6840077 L61.448505,24.7707129 C61.448505,24.0154143 61.9800664,23.3680154 62.7242525,23.3680154 Z" id="path-1"></path>
    </defs>
    <g id="Quick-Start-Guide/Service-Engine/0-Cover-Page" stroke="none" stroke-width="1" fill="none" fill-rule="evenodd">
        <g id="Slides/★-Cover-Page">
            <rect id="bg" fill="#005073" x="0" y="0" width="800" height="600"></rect>
            <g id="Group" stroke-width="1" transform="translate(24.000000, 190.000000)">
                <g id="CUI/cisco" transform="translate(344.000000, 0.000000)">
                    <mask id="mask-2" fill="white">
                        <use xlink:href="#path-1"></use>
                    </mask>
                    <use id="Color" fill="#FFFFFF" fill-rule="evenodd" xlink:href="#path-1"></use>
                </g>
                <g id="Slides/_/★-Guide-Type" transform="translate(0.000000, 166.000000)" fill="#FFFFFF" font-family="CiscoSansTT-ExtraLight, CiscoSansTT" font-size="40" font-weight="300">
                    <g id="Slides/_/guide-type/Quick-Start-Guide">
                        <text id="Quick-Start-Guide">
                            <tspan x="218.1" y="40">Quick Start Guide</tspan>
                        </text>
                    </g>
                </g>
                <text id="Product-Name" font-family="CiscoSansTT-ExtraLight, CiscoSansTT" font-size="40" font-weight="300" fill="#FFFFFF">
                    <tspan x="70.4" y="128">Cisco Application Services Engine</tspan>
                </text>
            </g>
        </g>
    </g>
</svg>