<svg id="Layer_1" data-name="Layer 1" xmlns="http://www.w3.org/2000/svg" xmlns:xlink="http://www.w3.org/1999/xlink" viewBox="0 0 810 610"><defs><style>.cls-1,.cls-2{fill:none;}.cls-2{clip-rule:evenodd;}.cls-3{clip-path:url(#clip-path);}.cls-4{fill:#015073;}.cls-5{clip-path:url(#clip-path-2);}.cls-6{isolation:isolate;}.cls-7{clip-path:url(#clip-path-4);}.cls-8{clip-path:url(#clip-path-5);}.cls-11,.cls-9{fill:#fff;}.cls-10{clip-path:url(#clip-path-6);}.cls-11{font-size:40px;font-family:CiscoSansTT-ExtraLight, CiscoSansTT;font-weight:200;}.cls-12{clip-path:url(#clip-path-7);}</style><clipPath id="clip-path" transform="translate(5 5)"><rect class="cls-1" width="800" height="600"/></clipPath><clipPath id="clip-path-2" transform="translate(5 5)"><path class="cls-2" d="M430.72,213.37a1.41,1.41,0,0,1,1.28,1.4v2.91a1.28,1.28,0,1,1-2.55,0v-2.91A1.33,1.33,0,0,1,430.72,213.37Zm-30.08,0a1.4,1.4,0,0,1,1.27,1.4v2.91a1.33,1.33,0,0,1-1.27,1.41,1.41,1.41,0,0,1-1.28-1.41v-2.91A1.33,1.33,0,0,1,400.64,213.37Zm-31.36,0a1.33,1.33,0,0,1,1.27,1.4v2.91a1.33,1.33,0,0,1-1.27,1.41,1.41,1.41,0,0,1-1.28-1.41v-2.91A1.33,1.33,0,0,1,369.28,213.37Zm53.58-4.32a1.43,1.43,0,0,1,1.27,1.51v7.12a1.29,1.29,0,1,1-2.55,0v-7.12A1.37,1.37,0,0,1,422.86,209.05Zm-14.35,0a1.52,1.52,0,0,1,1.27,1.51v7.12a1.29,1.29,0,1,1-2.55,0v-7.12A1.37,1.37,0,0,1,408.51,209.05Zm-15.74,0a1.52,1.52,0,0,1,1.28,1.51v7.12a1.36,1.36,0,0,1-1.28,1.51,1.43,1.43,0,0,1-1.28-1.51v-7.12A1.37,1.37,0,0,1,392.77,209.05Zm-15.73,0a1.52,1.52,0,0,1,1.27,1.51v7.12a1.36,1.36,0,0,1-1.27,1.51,1.43,1.43,0,0,1-1.28-1.51v-7.12A1.37,1.37,0,0,1,377,209.05Zm39.23-5.72a1.47,1.47,0,0,1,1.27,1.62v16.83a1.47,1.47,0,0,1-1.27,1.62,1.55,1.55,0,0,1-1.28-1.62V205A1.47,1.47,0,0,1,416.27,203.33Zm-31.37,0a1.56,1.56,0,0,1,1.28,1.62v16.83a1.47,1.47,0,0,1-1.28,1.62,1.55,1.55,0,0,1-1.27-1.62V205A1.47,1.47,0,0,1,384.9,203.33Zm35.94,27.52a3.26,3.26,0,1,0,2.87,3.23A3,3,0,0,0,420.84,230.85ZM397,227.61a7.14,7.14,0,0,1,2.77.43v2.7h-.05a8.1,8.1,0,0,0-2.19-.42c-1.16,0-1.8.43-1.8,1,0,.75.85,1,1.27,1.19l.75.32a3.69,3.69,0,0,1,2.76,3.56c0,3.13-2.55,4.21-4.68,4.21a20.15,20.15,0,0,1-3.08-.32v-2.92a8.89,8.89,0,0,0,2.76.43c1.39,0,2.13-.43,2.13-1.18s-.53-1-1.27-1.19c-.22-.11-.43-.11-.64-.22-1.6-.54-3-1.61-3-3.66C392.77,229.12,394.37,227.61,397,227.61Zm23.92,0a6.22,6.22,0,0,1,5.85,6.47c0,3.57-2.44,6.48-5.85,6.48s-5.84-2.91-5.84-6.48S417.54,227.61,420.94,227.61Zm-32.1.11v12.84h-2.66V227.72Zm-9.36,0a9,9,0,0,1,2.77.43v3.35a4.6,4.6,0,0,0-2.56-.65,3.35,3.35,0,0,0,0,6.69,5,5,0,0,0,2.56-.65v3.35a10.11,10.11,0,0,1-2.77.43,6.48,6.48,0,0,1,0-12.95Zm30.09,0a8.89,8.89,0,0,1,2.76.43v3.35a4.52,4.52,0,0,0-2.55-.65,3.35,3.35,0,0,0,0,6.69,4.91,4.91,0,0,0,2.55-.65v3.35a9.94,9.94,0,0,1-2.76.43,6.48,6.48,0,0,1,0-12.95Z"/></clipPath><clipPath id="clip-path-4" transform="translate(5 5)"><rect class="cls-1" x="363" y="198" width="74" height="48"/></clipPath><clipPath id="clip-path-5" transform="translate(5 5)"><rect class="cls-1" x="368" y="203" width="64" height="38"/></clipPath><clipPath id="clip-path-6" transform="translate(5 5)"><rect class="cls-1" x="24" y="356" width="752" height="54"/></clipPath><clipPath id="clip-path-7" transform="translate(5 5)"><rect class="cls-1" x="24" y="278" width="752" height="54"/></clipPath></defs><title>nd_quickStart</title><g class="cls-3"><rect class="cls-4" width="810" height="610"/></g><g class="cls-5"><g class="cls-3"><g class="cls-6"><g class="cls-7"><g class="cls-8"><rect class="cls-9" x="368" y="203.33" width="74" height="47.33"/></g></g></g></g></g><g class="cls-10"><text class="cls-11" transform="translate(247.1 401)">Quick Start Guide</text></g><g class="cls-12"><text class="cls-11" transform="translate(188.16 323)">Cisco Nexus Dashboard</text></g></svg>