<svg viewBox="0 0 40 24" fill="none" xmlns="http://www.w3.org/2000/svg">
<g clip-path="url(#clip0)">
<path d="M11.2228 8.70667C11.2228 9.2 11.2758 9.6 11.3685 9.89333C11.4744 10.1867 11.6069 10.5067 11.7923 10.8533C11.8585 10.96 11.885 11.0667 11.885 11.16C11.885 11.2933 11.8056 11.4267 11.6334 11.56L10.7989 12.12C10.6797 12.2 10.5605 12.24 10.4546 12.24C10.3221 12.24 10.1897 12.1733 10.0572 12.0533C9.87179 11.8533 9.71285 11.64 9.5804 11.4267C9.44795 11.2 9.3155 10.9467 9.1698 10.64C8.13669 11.8667 6.83867 12.48 5.27576 12.48C4.16318 12.48 3.27576 12.16 2.62675 11.52C1.97775 10.88 1.64662 10.0267 1.64662 8.96C1.64662 7.82667 2.04397 6.90667 2.85192 6.21333C3.65987 5.52 4.73271 5.17333 6.09695 5.17333C6.54728 5.17333 7.01086 5.21333 7.50093 5.28C7.99099 5.34667 8.4943 5.45333 9.02411 5.57333V4.6C9.02411 3.58667 8.81218 2.88 8.40159 2.46667C7.97775 2.05333 7.26252 1.85333 6.24265 1.85333C5.77907 1.85333 5.30225 1.90667 4.81218 2.02667C4.32212 2.14667 3.8453 2.29333 3.38172 2.48C3.1698 2.57333 3.01086 2.62667 2.91814 2.65333C2.82543 2.68 2.7592 2.69333 2.70622 2.69333C2.52079 2.69333 2.42808 2.56 2.42808 2.28V1.62667C2.42808 1.41333 2.45457 1.25333 2.52079 1.16C2.58702 1.06667 2.70622 0.973333 2.89165 0.88C3.35523 0.64 3.91152 0.44 4.56053 0.28C5.20954 0.106667 5.89828 0.0266667 6.62675 0.0266667C8.20291 0.0266667 9.35523 0.386667 10.097 1.10667C10.8254 1.82667 11.1963 2.92 11.1963 4.38667V8.70667H11.2228ZM5.8453 10.7333C6.28238 10.7333 6.73271 10.6533 7.20954 10.4933C7.68636 10.3333 8.1102 10.04 8.46781 9.64C8.67973 9.38667 8.83867 9.10667 8.91814 8.78667C8.99761 8.46667 9.05059 8.08 9.05059 7.62667V7.06667C8.66649 6.97333 8.25589 6.89333 7.83205 6.84C7.40821 6.78667 6.99761 6.76 6.58702 6.76C5.6996 6.76 5.0506 6.93333 4.61351 7.29333C4.17642 7.65333 3.9645 8.16 3.9645 8.82667C3.9645 9.45333 4.12344 9.92 4.45457 10.24C4.77245 10.5733 5.23603 10.7333 5.8453 10.7333ZM16.4811 12.1733C16.2426 12.1733 16.0837 12.1333 15.9777 12.04C15.8718 11.96 15.7791 11.7733 15.6996 11.52L12.587 1.21333C12.5075 0.946667 12.4678 0.773333 12.4678 0.68C12.4678 0.466667 12.5738 0.346667 12.7857 0.346667H14.0837C14.3354 0.346667 14.5075 0.386667 14.6003 0.48C14.7062 0.56 14.7857 0.746667 14.8652 1L17.0903 9.82667L19.1566 1C19.2228 0.733333 19.3022 0.56 19.4082 0.48C19.5142 0.4 19.6996 0.346667 19.938 0.346667H20.9976C21.2493 0.346667 21.4215 0.386667 21.5274 0.48C21.6334 0.56 21.7261 0.746667 21.7791 1L23.8718 9.93333L26.1632 1C26.2426 0.733333 26.3354 0.56 26.4281 0.48C26.534 0.4 26.7062 0.346667 26.9446 0.346667H28.1764C28.3883 0.346667 28.5075 0.453333 28.5075 0.68C28.5075 0.746667 28.4943 0.813333 28.4811 0.893333C28.4678 0.973333 28.4413 1.08 28.3883 1.22667L25.1963 11.5333C25.1168 11.8 25.0241 11.9733 24.9181 12.0533C24.8122 12.1333 24.64 12.1867 24.4148 12.1867H23.2758C23.0241 12.1867 22.8519 12.1467 22.746 12.0533C22.64 11.96 22.5473 11.7867 22.4943 11.52L20.4413 2.92L18.4016 11.5067C18.3354 11.7733 18.2559 11.9467 18.1499 12.04C18.044 12.1333 17.8585 12.1733 17.6201 12.1733H16.4811ZM33.5009 12.5333C32.8122 12.5333 32.1234 12.4533 31.4612 12.2933C30.7989 12.1333 30.2824 11.96 29.938 11.76C29.7261 11.64 29.5804 11.5067 29.5274 11.3867C29.4744 11.2667 29.4479 11.1333 29.4479 11.0133V10.3333C29.4479 10.0533 29.5539 9.92 29.7526 9.92C29.8321 9.92 29.9115 9.93333 29.991 9.96C30.0705 9.98667 30.1897 10.04 30.3221 10.0933C30.7724 10.2933 31.2625 10.4533 31.7791 10.56C32.3089 10.6667 32.8254 10.72 33.3552 10.72C34.1897 10.72 34.8387 10.5733 35.289 10.28C35.7393 9.98667 35.9777 9.56 35.9777 9.01333C35.9777 8.64 35.8585 8.33333 35.6201 8.08C35.3817 7.82667 34.9314 7.6 34.2824 7.38667L32.3619 6.78667C31.395 6.48 30.6797 6.02667 30.2426 5.42667C29.8056 4.84 29.5804 4.18667 29.5804 3.49333C29.5804 2.93333 29.6996 2.44 29.938 2.01333C30.1764 1.58667 30.4943 1.21333 30.8917 0.92C31.289 0.613333 31.7393 0.386667 32.2691 0.226667C32.7989 0.0666667 33.3552 0 33.938 0C34.2294 0 34.534 0.0133333 34.8254 0.0533333C35.1301 0.0933333 35.4082 0.146667 35.6864 0.2C35.9513 0.266667 36.2029 0.333333 36.4413 0.413333C36.6797 0.493333 36.8652 0.573333 36.9976 0.653333C37.183 0.76 37.3155 0.866667 37.395 0.986667C37.4744 1.09333 37.5142 1.24 37.5142 1.42667V2.05333C37.5142 2.33333 37.4082 2.48 37.2095 2.48C37.1036 2.48 36.9314 2.42667 36.7062 2.32C35.9513 1.97333 35.1036 1.8 34.1632 1.8C33.4082 1.8 32.8122 1.92 32.4016 2.17333C31.991 2.42667 31.7791 2.81333 31.7791 3.36C31.7791 3.73333 31.9115 4.05333 32.1764 4.30667C32.4413 4.56 32.9314 4.81333 33.6334 5.04L35.5142 5.64C36.4678 5.94667 37.1566 6.37333 37.5672 6.92C37.9777 7.46667 38.1764 8.09333 38.1764 8.78667C38.1764 9.36 38.0572 9.88 37.8321 10.3333C37.5936 10.7867 37.2758 11.1867 36.8652 11.5067C36.4546 11.84 35.9645 12.08 35.395 12.2533C34.7989 12.44 34.1764 12.5333 33.5009 12.5333Z" fill="#252F3E"/>
<path fill-rule="evenodd" clip-rule="evenodd" d="M36.0042 19.0133C31.6466 22.2533 25.3155 23.9733 19.8718 23.9733C12.2427 23.9733 5.36848 21.1333 0.176426 16.4133C-0.23417 16.04 0.136691 15.5333 0.626757 15.8267C6.24265 19.1067 13.1698 21.0933 20.3354 21.0933C25.1698 21.0933 30.4811 20.08 35.3685 18C36.097 17.6667 36.7195 18.48 36.0042 19.0133Z" fill="#FF9900"/>
<path fill-rule="evenodd" clip-rule="evenodd" d="M37.8188 16.9333C37.2625 16.2133 34.1367 16.5867 32.7195 16.76C32.2956 16.8133 32.2294 16.44 32.6135 16.16C35.1036 14.4 39.1963 14.9067 39.6731 15.4933C40.1499 16.0933 39.5407 20.2133 37.2095 22.1867C36.8519 22.4933 36.5076 22.3333 36.6665 21.9333C37.1963 20.6133 38.3751 17.64 37.8188 16.9333Z" fill="#FF9900"/>
</g>
<defs>
<clipPath id="clip0">
<rect width="39.824" height="23.9733" fill="white"/>
</clipPath>
</defs>
</svg>
