<svg viewBox="0 0 84 24" fill="none" xmlns="http://www.w3.org/2000/svg">
<g clip-path="url(#clip0)">
<path d="M14.2839 21.8097C18.2508 21.1345 21.5271 20.5759 21.5648 20.5682L21.6332 20.5542L17.8881 16.2626C15.8283 13.9022 14.143 11.9618 14.143 11.9506C14.143 11.9294 18.0101 1.66992 18.0319 1.63339C18.0391 1.62122 20.6708 5.99849 24.4113 12.2442C27.9131 18.0916 30.8002 22.9128 30.8271 22.9579L30.8758 23.0401L18.9737 23.0386L7.07152 23.0371L14.2839 21.8097V21.8097ZM59.9273 20.7717C58.1156 20.6598 57.0619 19.6659 56.7827 17.8056C56.7084 17.3107 56.7081 17.2979 56.7005 14.0851L56.6931 10.9757H57.495H58.2968L58.3031 13.9833C58.3088 16.694 58.3124 17.0118 58.3393 17.2025C58.4484 17.9764 58.6658 18.4968 59.0358 18.8703C59.332 19.1693 59.6786 19.3444 60.1585 19.4372C60.3849 19.4811 61.029 19.4812 61.2354 19.4374C61.7219 19.3343 62.1119 19.1303 62.4559 18.799C62.8479 18.4214 63.138 17.8857 63.2783 17.2799L63.3256 17.0758L63.3309 14.0427L63.3362 11.0096H64.1548H64.9734V15.7777V20.5458H64.1632H63.353V19.7893C63.353 19.2753 63.3472 19.0347 63.3348 19.0386C63.3248 19.0419 63.2832 19.1032 63.2423 19.1749C62.9631 19.6655 62.498 20.1141 61.9882 20.3843C61.3773 20.7083 60.7645 20.8235 59.9273 20.7718V20.7717ZM78.3167 20.764C77.6771 20.7177 77.0037 20.5059 76.4533 20.1779C75.2933 19.4866 74.6068 18.347 74.4059 16.7788C74.3363 16.2361 74.328 15.5072 74.386 15.0461C74.5157 14.0158 74.9359 13.0043 75.5344 12.2822C75.6878 12.0971 76.0358 11.7618 76.2279 11.614C76.7468 11.2149 77.3537 10.9358 77.998 10.8C78.3734 10.7209 79.0346 10.6838 79.4335 10.7194C80.4355 10.8089 81.3538 11.2634 81.978 11.9787C82.6121 12.7055 82.9607 13.7211 83.0052 14.9717C83.0122 15.1677 83.0139 15.5113 83.009 15.7352L83 16.1425L79.4907 16.1468L75.9814 16.151V16.3019C75.9814 16.7612 76.0973 17.2843 76.2976 17.7294C76.4704 18.1132 76.7679 18.5323 77.0114 18.7352C77.5107 19.151 78.1219 19.4 78.7906 19.4599C79.0385 19.4821 79.6705 19.4587 79.953 19.4169C80.7592 19.2975 81.5257 18.9929 82.1446 18.5458C82.2174 18.4932 82.2871 18.4441 82.2995 18.4366C82.3176 18.4257 82.3218 18.5631 82.3214 19.1408L82.3208 19.8585L82.155 19.9573C81.4548 20.3745 80.6526 20.6424 79.8033 20.7427C79.5499 20.7727 78.6198 20.786 78.3167 20.764L78.3167 20.764ZM81.3709 14.7105C81.3709 13.9411 81.0343 13.0865 80.5581 12.6464C80.2182 12.3323 79.8074 12.1404 79.319 12.0675C79.0879 12.033 78.6009 12.0463 78.3573 12.0937C77.8423 12.194 77.4163 12.4121 77.0447 12.7658C76.6537 13.1381 76.3606 13.5902 76.1762 14.1053C76.1099 14.2905 76.0324 14.5947 76.0083 14.7638L75.9968 14.8444H78.6838H81.3709V14.7105ZM33.7673 20.5245C33.7714 20.5129 34.9631 17.4968 36.4155 13.8221L39.0563 7.14085H39.9047H40.7532L40.8236 7.31477C41.0387 7.84627 46.1102 20.5313 46.1102 20.5378C46.1102 20.5422 45.704 20.5456 45.2075 20.5456L44.3048 20.5454L43.5739 18.6706L42.843 16.7958L39.8999 16.7958L36.9569 16.7957L36.9313 16.8593C36.9172 16.8943 36.6049 17.738 36.2373 18.734L35.5689 20.5451L34.6644 20.5454C33.9484 20.5456 33.7614 20.5413 33.7673 20.5245V20.5245ZM42.3058 15.365C42.3058 15.3621 41.8139 14.0773 41.2127 12.5101C40.088 9.57811 40.0251 9.4017 39.9362 8.93098C39.8945 8.71025 39.8735 8.70412 39.8487 8.90553C39.831 9.04949 39.7544 9.37164 39.6953 9.55032C39.666 9.63898 39.1595 10.9782 38.5697 12.5265C37.98 14.0747 37.4975 15.3479 37.4975 15.3559C37.4975 15.3639 38.5794 15.3704 39.9017 15.3704C41.2239 15.3704 42.3058 15.368 42.3058 15.365V15.365ZM46.6562 20.3016V20.0574L49.5883 16.174L52.5205 12.2907L49.8657 12.2822L47.211 12.2737L47.2063 11.6247L47.2017 10.9757H51.0415H54.8813V11.1949V11.4141L51.9488 15.3186C50.3359 17.4661 49.0163 19.2267 49.0163 19.2312C49.0163 19.2356 50.32 19.2392 51.9136 19.2392H54.8108V19.8925V20.5457H50.7335H46.6562V20.3016ZM68.173 20.5344C68.1666 20.5282 68.1613 18.3749 68.1613 15.7494V10.9757H68.9627H69.7641V11.9598C69.7641 12.5011 69.7709 12.944 69.7792 12.944C69.7876 12.944 69.8266 12.8554 69.8659 12.7471C70.0461 12.2508 70.3586 11.7872 70.7611 11.4186C71.1238 11.0867 71.5382 10.8881 72.0273 10.8122C72.1647 10.7908 72.2809 10.7867 72.5557 10.7936C72.9007 10.8023 73.0812 10.8266 73.291 10.8927L73.3571 10.9135V11.7149V12.5162L73.1677 12.4249C72.8333 12.2636 72.5033 12.1998 72.1066 12.2197C71.8484 12.2326 71.6789 12.2646 71.4725 12.3392C71.0478 12.4928 70.7033 12.7638 70.4626 13.1338C70.1141 13.6694 69.8656 14.3578 69.7923 14.9906C69.7792 15.1041 69.7714 16.0289 69.7683 17.852L69.7637 20.5457H68.9743C68.54 20.5457 68.1795 20.5407 68.173 20.5344H68.173ZM0 20.5009C0 20.4949 1.76466 17.5436 3.92147 13.9426L7.84294 7.39535L12.413 3.70052C14.9265 1.66836 16.9898 0.00319934 16.998 7.90169e-05C17.0063 -0.00287376 16.9732 0.0773006 16.9246 0.178329C16.8759 0.279357 14.6428 4.89381 11.9622 10.4327L7.08827 20.5033L3.54413 20.5076C1.59486 20.51 0 20.5069 0 20.5009V20.5009Z" fill="#0089D6"/>
</g>
<defs>
<clipPath id="clip0">
<rect width="83.0118" height="23.0401" fill="white"/>
</clipPath>
</defs>
</svg>
