<?xml version="1.0" encoding="UTF-8"?>
<svg viewBox="0 0 922 325" version="1.1" xmlns="http://www.w3.org/2000/svg" xmlns:xlink="http://www.w3.org/1999/xlink">
    <!-- Generator: Sketch 52.6 (67491) - http://www.bohemiancoding.com/sketch -->
    <title>capic-smart-licensing</title>
    <desc>Created with Sketch.</desc>
    <defs>
        <path d="M7.99994444,20.8854151 L0.390505424,13.2759761 C-0.130168475,12.7553022 -0.130168475,11.9112904 0.390505424,11.3906165 C0.911179322,10.8699426 1.75519104,10.8699426 2.27586494,11.3906165 L7.99994444,17.114696 L21.7241351,3.39050542 C22.244809,2.86983153 23.0888207,2.86983153 23.6094946,3.39050542 C24.1301685,3.91117932 24.1301685,4.75519104 23.6094946,5.27586494 L7.99994444,20.8854151 Z" id="path-1"></path>
        <path d="M7.99994444,20.8854151 L0.390505424,13.2759761 C-0.130168475,12.7553022 -0.130168475,11.9112904 0.390505424,11.3906165 C0.911179322,10.8699426 1.75519104,10.8699426 2.27586494,11.3906165 L7.99994444,17.114696 L21.7241351,3.39050542 C22.244809,2.86983153 23.0888207,2.86983153 23.6094946,3.39050542 C24.1301685,3.91117932 24.1301685,4.75519104 23.6094946,5.27586494 L7.99994444,20.8854151 Z" id="path-3"></path>
        <path d="M7.99994444,20.8854151 L0.390505424,13.2759761 C-0.130168475,12.7553022 -0.130168475,11.9112904 0.390505424,11.3906165 C0.911179322,10.8699426 1.75519104,10.8699426 2.27586494,11.3906165 L7.99994444,17.114696 L21.7241351,3.39050542 C22.244809,2.86983153 23.0888207,2.86983153 23.6094946,3.39050542 C24.1301685,3.91117932 24.1301685,4.75519104 23.6094946,5.27586494 L7.99994444,20.8854151 Z" id="path-5"></path>
        <path d="M7.99994444,20.8854151 L0.390505424,13.2759761 C-0.130168475,12.7553022 -0.130168475,11.9112904 0.390505424,11.3906165 C0.911179322,10.8699426 1.75519104,10.8699426 2.27586494,11.3906165 L7.99994444,17.114696 L21.7241351,3.39050542 C22.244809,2.86983153 23.0888207,2.86983153 23.6094946,3.39050542 C24.1301685,3.91117932 24.1301685,4.75519104 23.6094946,5.27586494 L7.99994444,20.8854151 Z" id="path-7"></path>
        <path d="M7.99994444,20.8854151 L0.390505424,13.2759761 C-0.130168475,12.7553022 -0.130168475,11.9112904 0.390505424,11.3906165 C0.911179322,10.8699426 1.75519104,10.8699426 2.27586494,11.3906165 L7.99994444,17.114696 L21.7241351,3.39050542 C22.244809,2.86983153 23.0888207,2.86983153 23.6094946,3.39050542 C24.1301685,3.91117932 24.1301685,4.75519104 23.6094946,5.27586494 L7.99994444,20.8854151 Z" id="path-9"></path>
        <path d="M7.99994444,20.8854151 L0.390505424,13.2759761 C-0.130168475,12.7553022 -0.130168475,11.9112904 0.390505424,11.3906165 C0.911179322,10.8699426 1.75519104,10.8699426 2.27586494,11.3906165 L7.99994444,17.114696 L21.7241351,3.39050542 C22.244809,2.86983153 23.0888207,2.86983153 23.6094946,3.39050542 C24.1301685,3.91117932 24.1301685,4.75519104 23.6094946,5.27586494 L7.99994444,20.8854151 Z" id="path-11"></path>
        <path d="M7.99994444,20.8854151 L0.390505424,13.2759761 C-0.130168475,12.7553022 -0.130168475,11.9112904 0.390505424,11.3906165 C0.911179322,10.8699426 1.75519104,10.8699426 2.27586494,11.3906165 L7.99994444,17.114696 L21.7241351,3.39050542 C22.244809,2.86983153 23.0888207,2.86983153 23.6094946,3.39050542 C24.1301685,3.91117932 24.1301685,4.75519104 23.6094946,5.27586494 L7.99994444,20.8854151 Z" id="path-13"></path>
        <path d="M7.99994444,20.8854151 L0.390505424,13.2759761 C-0.130168475,12.7553022 -0.130168475,11.9112904 0.390505424,11.3906165 C0.911179322,10.8699426 1.75519104,10.8699426 2.27586494,11.3906165 L7.99994444,17.114696 L21.7241351,3.39050542 C22.244809,2.86983153 23.0888207,2.86983153 23.6094946,3.39050542 C24.1301685,3.91117932 24.1301685,4.75519104 23.6094946,5.27586494 L7.99994444,20.8854151 Z" id="path-15"></path>
    </defs>
    <g id="Smart-LIcensing" stroke="none" stroke-width="1" fill="none" fill-rule="evenodd">
        <g id="Infrastructure/Smart-Licensing/License-Overview" transform="translate(-41.000000, -145.000000)">
            <g id="capic-smart-licensing" transform="translate(42.000000, 145.000000)">
                <g id="Smart-Licensing/header/feature/grey">
                    <rect id="Rectangle" fill="#FFFFFF" x="0" y="0" width="920" height="54"></rect>
                    <g id="Group-2" stroke-width="1" transform="translate(600.000000, 1.000000)">
                        <rect id="Rectangle" fill="#FFFFFF" x="0" y="0" width="160" height="52"></rect>
                        <text id="Essentials-Cloud" font-family="Arial-BoldMT, Arial" font-size="16" font-weight="bold" fill="#FBAB18">
                            <tspan x="16.0390625" y="31.0185185">Essentials Cloud</tspan>
                        </text>
                    </g>
                    <g id="Group" stroke-width="1" transform="translate(760.000000, 1.000000)">
                        <rect id="Rectangle-Copy-2" fill="#FFFFFF" x="0" y="0" width="160" height="52"></rect>
                        <text id="Advantage-Cloud" font-family="Arial-BoldMT, Arial" font-size="16" font-weight="bold" fill="#04BBE9">
                            <tspan x="14.21875" y="31.0185185">Advantage Cloud</tspan>
                        </text>
                    </g>
                </g>
                <g id="Smart-Licensing/row/feature" transform="translate(0.000000, 54.000000)">
                    <rect id="Rectangle-Copy-7" stroke="#E8EBF1" stroke-width="0.5" fill="#FFFFFF" fill-rule="evenodd" x="0" y="0" width="920" height="54"></rect>
                    <g id="Group" stroke-width="1" fill-rule="evenodd" transform="translate(760.000000, 1.000000)">
                        <rect id="Rectangle-Copy-2" fill="#FFFFFF" x="0" y="0" width="160" height="52"></rect>
                        <g id="CUI/check" transform="translate(68.000000, 15.000000)">
                            <mask id="mask-2" fill="white">
                                <use xlink:href="#path-1"></use>
                            </mask>
                            <use id="Shape" fill="#000000" fill-rule="nonzero" xlink:href="#path-1"></use>
                            <g id="CUI/Color/statusBlue" mask="url(#mask-2)" fill="#63BBE3" fill-rule="evenodd">
                                <rect id="color" x="0" y="0" width="24" height="24"></rect>
                            </g>
                        </g>
                    </g>
                    <g id="Group-2" stroke-width="1" fill-rule="evenodd" transform="translate(600.000000, 1.000000)">
                        <rect id="Rectangle" fill="#FFFFFF" x="0" y="0" width="160" height="52"></rect>
                        <g id="CUI/check" transform="translate(64.000000, 15.000000)">
                            <mask id="mask-4" fill="white">
                                <use xlink:href="#path-3"></use>
                            </mask>
                            <use id="Shape" fill="#000000" fill-rule="nonzero" xlink:href="#path-3"></use>
                            <g id="CUI/Color/statusOrange" mask="url(#mask-4)" fill="#FBAB18" fill-rule="evenodd">
                                <rect id="color" x="0" y="0" width="24" height="24"></rect>
                            </g>
                        </g>
                    </g>
                    <text id="feature-name" font-family="ArialMT, Arial" font-size="14" font-weight="normal" fill="#58585B">
                        <tspan x="24" y="32">One Cloud APIC</tspan>
                    </text>
                </g>
                <g id="Smart-Licensing/row/feature" transform="translate(0.000000, 162.000000)">
                    <rect id="Rectangle-Copy-7" stroke="#E8EBF1" stroke-width="0.5" fill="#FFFFFF" fill-rule="evenodd" x="0" y="0" width="920" height="54"></rect>
                    <g id="Group" stroke-width="1" fill-rule="evenodd" transform="translate(760.000000, 1.000000)">
                        <rect id="Rectangle-Copy-2" fill="#FFFFFF" x="0" y="0" width="160" height="52"></rect>
                        <g id="CUI/check" transform="translate(68.000000, 15.000000)">
                            <mask id="mask-6" fill="white">
                                <use xlink:href="#path-5"></use>
                            </mask>
                            <use id="Shape" fill="#000000" fill-rule="nonzero" xlink:href="#path-5"></use>
                            <g id="CUI/Color/statusBlue" mask="url(#mask-6)" fill="#63BBE3" fill-rule="evenodd">
                                <rect id="color" x="0" y="0" width="24" height="24"></rect>
                            </g>
                        </g>
                    </g>
                    <g id="Group-2" stroke-width="1" fill-rule="evenodd" transform="translate(600.000000, 1.000000)">
                        <rect id="Rectangle" fill="#FFFFFF" x="0" y="0" width="160" height="52"></rect>
                        <g id="CUI/check" transform="translate(64.000000, 15.000000)">
                            <mask id="mask-8" fill="white">
                                <use xlink:href="#path-7"></use>
                            </mask>
                            <use id="Shape" fill="#000000" fill-rule="nonzero" xlink:href="#path-7"></use>
                            <g id="CUI/Color/statusOrange" mask="url(#mask-8)" fill="#FBAB18" fill-rule="evenodd">
                                <rect id="color" x="0" y="0" width="24" height="24"></rect>
                            </g>
                        </g>
                    </g>
                    <text id="feature-name" font-family="ArialMT, Arial" font-size="14" font-weight="normal" fill="#58585B">
                        <tspan x="24" y="32">Single Policy Domain</tspan>
                    </text>
                </g>
                <g id="Smart-Licensing/row/feature" transform="translate(0.000000, 270.000000)">
                    <rect id="Rectangle-Copy-7" stroke="#E8EBF1" stroke-width="0.5" fill="#FFFFFF" fill-rule="evenodd" x="0" y="0" width="920" height="54"></rect>
                    <g id="Group" stroke-width="1" fill-rule="evenodd" transform="translate(760.000000, 1.000000)">
                        <rect id="Rectangle-Copy-2" fill="#FFFFFF" x="0" y="0" width="160" height="52"></rect>
                        <g id="CUI/check" transform="translate(68.000000, 15.000000)">
                            <mask id="mask-10" fill="white">
                                <use xlink:href="#path-9"></use>
                            </mask>
                            <use id="Shape" fill="#000000" fill-rule="nonzero" xlink:href="#path-9"></use>
                            <g id="CUI/Color/statusBlue" mask="url(#mask-10)" fill="#63BBE3" fill-rule="evenodd">
                                <rect id="color" x="0" y="0" width="24" height="24"></rect>
                            </g>
                        </g>
                    </g>
                    <g id="Group-2" stroke-width="1" fill-rule="evenodd" transform="translate(600.000000, 1.000000)" fill="#FFFFFF">
                        <rect id="Rectangle" x="0" y="0" width="160" height="52"></rect>
                    </g>
                    <text id="feature-name" font-family="ArialMT, Arial" font-size="14" font-weight="normal" fill="#58585B">
                        <tspan x="24" y="32">Multiple Policy Domains in Cloud</tspan>
                    </text>
                </g>
                <g id="Smart-Licensing/row/feature" transform="translate(0.000000, 108.000000)">
                    <rect id="Rectangle-Copy-7" stroke="#E8EBF1" stroke-width="0.5" fill="#FFFFFF" fill-rule="evenodd" x="0" y="0" width="920" height="54"></rect>
                    <g id="Group" stroke-width="1" fill-rule="evenodd" transform="translate(760.000000, 1.000000)">
                        <rect id="Rectangle-Copy-2" fill="#FFFFFF" x="0" y="0" width="160" height="52"></rect>
                        <g id="CUI/check" transform="translate(68.000000, 15.000000)">
                            <mask id="mask-12" fill="white">
                                <use xlink:href="#path-11"></use>
                            </mask>
                            <use id="Shape" fill="#000000" fill-rule="nonzero" xlink:href="#path-11"></use>
                            <g id="CUI/Color/statusBlue" mask="url(#mask-12)" fill="#63BBE3" fill-rule="evenodd">
                                <rect id="color" x="0" y="0" width="24" height="24"></rect>
                            </g>
                        </g>
                    </g>
                    <g id="Group-2" stroke-width="1" fill-rule="evenodd" transform="translate(600.000000, 1.000000)">
                        <rect id="Rectangle" fill="#FFFFFF" x="0" y="0" width="160" height="52"></rect>
                        <g id="CUI/check" transform="translate(64.000000, 15.000000)">
                            <mask id="mask-14" fill="white">
                                <use xlink:href="#path-13"></use>
                            </mask>
                            <use id="Shape" fill="#000000" fill-rule="nonzero" xlink:href="#path-13"></use>
                            <g id="CUI/Color/statusOrange" mask="url(#mask-14)" fill="#FBAB18" fill-rule="evenodd">
                                <rect id="color" x="0" y="0" width="24" height="24"></rect>
                            </g>
                        </g>
                    </g>
                    <text id="feature-name" font-family="ArialMT, Arial" font-size="14" font-weight="normal" fill="#58585B">
                        <tspan x="24" y="32">One or More Regions</tspan>
                    </text>
                </g>
                <g id="Smart-Licensing/row/feature" transform="translate(0.000000, 216.000000)">
                    <rect id="Rectangle-Copy-7" stroke="#E8EBF1" stroke-width="0.5" fill="#FFFFFF" fill-rule="evenodd" x="0" y="0" width="920" height="54"></rect>
                    <g id="Group" stroke-width="1" fill-rule="evenodd" transform="translate(760.000000, 1.000000)">
                        <rect id="Rectangle-Copy-2" fill="#FFFFFF" x="0" y="0" width="160" height="52"></rect>
                        <g id="CUI/check" transform="translate(68.000000, 15.000000)">
                            <mask id="mask-16" fill="white">
                                <use xlink:href="#path-15"></use>
                            </mask>
                            <use id="Shape" fill="#000000" fill-rule="nonzero" xlink:href="#path-15"></use>
                            <g id="CUI/Color/statusBlue" mask="url(#mask-16)" fill="#63BBE3" fill-rule="evenodd">
                                <rect id="color" x="0" y="0" width="24" height="24"></rect>
                            </g>
                        </g>
                    </g>
                    <g id="Group-2" stroke-width="1" fill-rule="evenodd" transform="translate(600.000000, 1.000000)" fill="#FFFFFF">
                        <rect id="Rectangle" x="0" y="0" width="160" height="52"></rect>
                    </g>
                    <text id="feature-name" font-family="ArialMT, Arial" font-size="14" font-weight="normal" fill="#58585B">
                        <tspan x="24" y="32">Multiple Cloud APICs</tspan>
                    </text>
                </g>
            </g>
        </g>
    </g>
</svg>
