<?xml version="1.0" encoding="UTF-8"?>
<svg viewBox="0 0 40 48" version="1.1" xmlns="http://www.w3.org/2000/svg" xmlns:xlink="http://www.w3.org/1999/xlink">
    <!-- Generator: Sketch 52.3 (67297) - http://www.bohemiancoding.com/sketch -->
    <title>Mask</title>
    <desc>Created with Sketch.</desc>
    <defs>
        <path d="M43.5594516,7.07022116 C43.8233582,7.16618223 44,7.42343957 44,7.71200336 C44,14.827823 42.173645,23.0536605 38.9892074,30.28055 C36.4059858,36.1428867 31.7610187,43.9626931 24.3024562,47.9244562 C24.2075343,47.9748187 24.1038992,48 24.000132,48 C23.8963648,48 23.7927297,47.9748187 23.6978078,47.9244562 C16.2391134,43.9626931 11.5940142,36.1428867 9.0109246,30.28055 C5.82635501,23.0536605 4,14.827823 4,7.71200336 C4,7.42343957 4.17664183,7.16618223 4.44054841,7.07022116 L23.7805839,0.0387927734 C23.9226367,-0.0129309245 24.0776273,-0.0129309245 24.2196801,0.0387927734 L43.5594516,7.07022116 Z M24,33.5712615 C24.2322462,33.5712615 24.4284923,33.498956 24.5893538,33.3535395 L32.9331077,26.0991292 C34.9776923,24.2533252 36,22.4398268 36,20.6584395 C36,18.8851355 35.4332308,17.4986367 34.2992923,16.4991931 C33.1653538,15.4997496 31.5980308,15 29.5981538,15 C29.0446154,15 28.4800308,15.0865555 27.9038769,15.2598609 C27.3281538,15.4331941 26.7924923,15.6668883 26.2968923,15.9611936 C25.8012615,16.2553045 25.3751385,16.5315264 25.0180308,16.7894707 C24.6605231,17.0472204 24.3215077,17.3213035 24,17.611581 C23.6784923,17.3213035 23.3392615,17.0472204 22.9821846,16.7894707 C22.6250769,16.5315264 22.1987385,16.2553045 21.7031385,15.9611936 C21.2075385,15.6668883 20.6718769,15.4331663 20.0959692,15.2598609 C19.5200308,15.0865555 18.9554154,15 18.4018462,15 C16.4017846,15 14.8348615,15.4997496 13.7009231,16.4991931 C12.5669846,17.4986645 12,18.8851355 12,20.6584395 C12,21.1983557 12.1048,21.7546885 12.3146769,22.326938 C12.5245538,22.8991875 12.7634154,23.3869927 13.0312308,23.7899645 C13.2990462,24.1929364 13.6026769,24.5859083 13.9418769,24.9688802 C14.2813231,25.3516576 14.5291077,25.6155741 14.6852923,25.7606017 C14.8414769,25.9056294 14.9642154,26.010657 15.0534769,26.074907 L23.4106462,33.3535395 C23.5715385,33.4989283 23.7677538,33.5712615 24,33.5712615 Z" id="path-1"></path>
    </defs>
    <g id="Symbols" stroke="none" stroke-width="1" fill="none" fill-rule="evenodd">
        <g id="Blueprint/health-score" transform="translate(-4.000000, 0.000000)">
            <mask id="mask-2" fill="white">
                <use xlink:href="#path-1"></use>
            </mask>
            <use id="Mask" fill="#fdac00" fill-rule="nonzero" xlink:href="#path-1"></use>
        </g>
    </g>
</svg>
