<?xml version="1.0" encoding="UTF-8"?>
<svg viewBox="0 0 48 48" version="1.1" xmlns="http://www.w3.org/2000/svg" xmlns:xlink="http://www.w3.org/1999/xlink">
    <!-- Generator: Sketch 53.2 (72643) - https://sketchapp.com -->
    <title>Blueprint/intent</title>
    <desc>Created with Sketch.</desc>
    <g id="Blueprint/intent" stroke="none" stroke-width="1" fill="none" fill-rule="evenodd">
        <path d="M21.6265016,47.8841159 L23.5014162,41.9932282 C23.6670619,41.997733 23.8332662,42 24,42 C33.9411255,42 42,33.9411255 42,24 C42,14.0588745 33.9411255,6 24,6 C14.0588745,6 6,14.0588745 6,24 C6,24.2023231 6.00333806,24.4038666 6.00996212,24.6045784 L0.125211504,26.4666493 C0.0424180551,25.6557019 7.10542736e-15,24.8328046 7.10542736e-15,24 C7.10542736e-15,10.745166 10.745166,0 24,0 C37.254834,0 48,10.745166 48,24 C48,37.254834 37.254834,48 24,48 C23.1990671,48 22.4072977,47.9607665 21.6265088,47.8841166 Z M12.0710393,22.6867137 C12.7251709,16.677131 17.8163842,12 24,12 C30.627417,12 36,17.372583 36,24 C36,30.1439563 31.3826715,35.2094778 25.4287508,35.915828 L27.3816567,28.9664496 L27.3775202,28.9597715 C28.9606811,27.8795782 30,26.0611621 30,24 C30,20.6862915 27.3137085,18 24,18 C22.0188195,18 20.2619114,18.9602241 19.1692822,20.4406659 L12.0710393,22.6867137 Z M2.79325301,28.2939759 L24.9452579,22.9370735 C24.9608789,22.933296 24.9771802,22.9333391 24.992781,22.9371991 C25.0463928,22.9504639 25.0791005,23.0046781 25.0658357,23.05829 L19.6096386,45.1103614 C19.1942169,46.5725301 17.1913253,46.7440964 16.533012,45.373494 L13.3628916,38.7739759 C12.8093971,39.3274704 12.3942762,39.7425912 12.117529,40.0193385 C10.4843432,41.6525243 8.03456443,44.102303 4.76819277,47.3686747 C4.18409639,47.9527711 3.23662651,47.9527711 2.65156627,47.3686747 L0.534939759,45.2520482 C-0.0501204819,44.6679518 -0.0501204819,43.7195181 0.534939759,43.1354217 C3.70424532,39.9661161 6.08122449,37.589137 7.66587727,36.0044842 C7.99115755,35.6792039 8.47907798,35.1912835 9.12963855,34.5407229 L2.53012048,31.3706024 C1.15951807,30.713253 1.33108434,28.7093976 2.79325301,28.2939759 Z" id="Combined-Shape" fill="#fff"></path>
    </g>
</svg>
