<?xml version="1.0" encoding="utf-8"?>
<!-- Generator: Adobe Illustrator 19.1.0, SVG Export Plug-In . SVG Version: 6.00 Build 0)  -->
<!DOCTYPE svg PUBLIC "-//W3C//DTD SVG 1.1//EN" "http://www.w3.org/Graphics/SVG/1.1/DTD/svg11.dtd">
<svg version="1.1" id="Layer_1" xmlns:sketch="http://www.bohemiancoding.com/sketch/ns"
	 xmlns="http://www.w3.org/2000/svg" xmlns:xlink="http://www.w3.org/1999/xlink" x="0px" y="0px" viewBox="-275 379 61 35"
	 style="enable-background:new -275 379 61 35;" xml:space="preserve">

<title>Group</title>
<desc>Created with Sketch.</desc>
<g id="NOTIFICATION" transform="translate(-1886.000000, -362.000000)" sketch:type="MSArtboardGroup">
	<g id="Group" transform="translate(1886.016129, 362.000000)" fill="#fff" sketch:type="MSLayerGroup">
		<path id="Fill-1" sketch:type="MSShapeGroup" d="M-257.8,401.8h2.5v11.9h-2.5V401.8z"/>
		<path id="Fill-2" sketch:type="MSShapeGroup" d="M-233.2,405.3c-0.1-0.1-1-0.6-2.4-0.6c-1.8,0-3.1,1.3-3.1,3.1
			c0,1.7,1.2,3.1,3.1,3.1c1.3,0,2.3-0.5,2.4-0.6v3.1c-0.4,0.1-1.3,0.4-2.6,0.4c-3.2,0-6-2.3-6-6c0-3.4,2.5-6,6-6
			c1.3,0,2.3,0.3,2.6,0.4V405.3"/>
		<path id="Fill-3" sketch:type="MSShapeGroup" d="M-261.5,405.3c-0.1-0.1-1-0.6-2.4-0.6c-1.8,0-3.1,1.3-3.1,3.1
			c0,1.7,1.2,3.1,3.1,3.1c1.3,0,2.3-0.5,2.4-0.6v3.1c-0.4,0.1-1.3,0.4-2.6,0.4c-3.2,0-6-2.3-6-6c0-3.4,2.5-6,6-6
			c1.3,0,2.3,0.3,2.6,0.4V405.3" />
		<path id="Fill-4" sketch:type="MSShapeGroup" d="M-225.2,404.7c-1.6,0-2.7,1.4-2.7,3c0,1.7,1.2,3,2.7,3
			c1.6,0,2.7-1.4,2.7-3C-222.4,406.1-223.6,404.7-225.2,404.7L-225.2,404.7z M-219.6,407.7c0,3.3-2.3,6-5.5,6c-3.2,0-5.5-2.7-5.5-6
			c0-3.3,2.3-6,5.5-6C-222,401.8-219.6,404.4-219.6,407.7L-219.6,407.7z"/>
		<path id="Fill-5" sketch:type="MSShapeGroup" d="M-245,404.6c0,0-1.2-0.4-2.1-0.4c-1.1,0-1.7,0.4-1.7,0.9
			c0,0.7,0.8,0.9,1.2,1.1l0.7,0.3c1.8,0.6,2.6,1.9,2.6,3.3c0,2.9-2.4,3.9-4.4,3.9c-1.4,0-2.8-0.3-2.9-0.3v-2.7
			c0.2,0.1,1.4,0.4,2.6,0.4c1.3,0,2-0.4,2-1.1c0-0.6-0.5-0.9-1.2-1.1c-0.2-0.1-0.4-0.1-0.6-0.2c-1.5-0.5-2.8-1.5-2.8-3.4
			c0-2.2,1.5-3.6,4-3.6c1.3,0,2.6,0.3,2.6,0.4V404.6"/>
		<path id="Fill-6" sketch:type="MSShapeGroup" d="M-272.5,389.8c0-0.7-0.5-1.3-1.2-1.3c-0.7,0-1.2,0.6-1.2,1.3v2.7
			c0,0.7,0.6,1.3,1.2,1.3c0.7,0,1.2-0.6,1.2-1.3V389.8"/>
		<path id="Fill-7" sketch:type="MSShapeGroup" d="M-265.2,385.9c0-0.7-0.6-1.4-1.2-1.4c-0.7,0-1.2,0.6-1.2,1.4v6.6
			c0,0.8,0.6,1.4,1.2,1.4c0.7,0,1.2-0.6,1.2-1.4V385.9"/>
		<path id="Fill-8" sketch:type="MSShapeGroup" d="M-257.8,380.7c0-0.8-0.6-1.5-1.2-1.5c-0.7,0-1.2,0.7-1.2,1.5v15.6
			c0,0.8,0.6,1.5,1.2,1.5c0.7,0,1.2-0.7,1.2-1.5V380.7"/>
		<path id="Fill-9" sketch:type="MSShapeGroup" d="M-250.4,385.9c0-0.7-0.6-1.4-1.2-1.4c-0.7,0-1.2,0.6-1.2,1.4v6.6
			c0,0.8,0.6,1.4,1.2,1.4c0.7,0,1.2-0.6,1.2-1.4V385.9"/>
		<path id="Fill-10" sketch:type="MSShapeGroup" d="M-243,389.8c0-0.7-0.6-1.3-1.2-1.3c-0.7,0-1.2,0.6-1.2,1.3v2.7
			c0,0.7,0.6,1.3,1.2,1.3c0.7,0,1.2-0.6,1.2-1.3V389.8"/>
		<path id="Fill-11" sketch:type="MSShapeGroup" d="M-235.6,385.9c0-0.7-0.6-1.4-1.2-1.4c-0.7,0-1.2,0.6-1.2,1.4v6.6
			c0,0.8,0.5,1.4,1.2,1.4c0.7,0,1.2-0.6,1.2-1.4V385.9"/>
		<path id="Fill-12" sketch:type="MSShapeGroup" d="M-228.3,380.7c0-0.8-0.5-1.5-1.2-1.5c-0.7,0-1.2,0.7-1.2,1.5v15.6
			c0,0.8,0.6,1.5,1.2,1.5c0.7,0,1.2-0.7,1.2-1.5V380.7"/>
		<path id="Fill-13" sketch:type="MSShapeGroup" d="M-222.1,385.9c0-0.7-0.5-1.4-1.2-1.4c-0.7,0-1.2,0.6-1.2,1.4v6.6
			c0,0.8,0.5,1.4,1.2,1.4c0.7,0,1.2-0.6,1.2-1.4V385.9"/>
		<path id="Fill-14" sketch:type="MSShapeGroup" d="M-214.7,389.8c0-0.7-0.6-1.3-1.2-1.3c-0.7,0-1.2,0.6-1.2,1.3v2.7
			c0,0.7,0.5,1.3,1.2,1.3c0.7,0,1.2-0.6,1.2-1.3V389.8"/>
	</g>
</g>
</svg>
