<svg xmlns="http://www.w3.org/2000/svg" xmlns:xlink="http://www.w3.org/1999/xlink" width="2710" height="1541.41"><rect width="2710" height="1541.41" rx="0" ry="0" class="a"/><svg height="1541.41" viewBox="0 0 271 154.141" width="2710" xmlns="http://www.w3.org/2000/svg" xmlns:xlink="http://www.w3.org/1999/xlink"><style>@keyframes f{0%{transform:translateX(0)}.1%{transform:translateX(-271px)}8%{transform:translateX(-542px)}9.4%{transform:translateX(-813px)}10.2%{transform:translateX(-1084px)}12%{transform:translateX(-1355px)}12.9%{transform:translateX(-1626px)}13.8%{transform:translateX(-1897px)}15.6%{transform:translateX(-2168px)}17.9%{transform:translateX(-2439px)}18.7%{transform:translateX(-2710px)}19.3%{transform:translateX(-2981px)}20.6%{transform:translateX(-3252px)}24.6%{transform:translateX(-3523px)}26.8%{transform:translateX(-3794px)}28.9%{transform:translateX(-4065px)}32.5%{transform:translateX(-4336px)}33.5%{transform:translateX(-4607px)}34.7%{transform:translateX(-4878px)}36%{transform:translateX(-5149px)}39.9%{transform:translateX(-5420px)}42.5%{transform:translateX(-5691px)}43.2%{transform:translateX(-5962px)}44.4%{transform:translateX(-6233px)}45.5%{transform:translateX(-6504px)}51%{transform:translateX(-6775px)}56.6%{transform:translateX(-7046px)}58.7%{transform:translateX(-7317px)}59.3%{transform:translateX(-7588px)}61.4%{transform:translateX(-7859px)}67.7%{transform:translateX(-8130px)}74.1%{transform:translateX(-8401px)}78.2%{transform:translateX(-8672px)}88.2%{transform:translateX(-8943px)}96.2%{transform:translateX(-9485px)}to{transform:translateX(-9756px)}}.a{fill:#282d35}.c{fill:#b9c0cb;white-space:pre}</style><g font-family="Monaco,Consolas,Menlo,'Bitstream Vera Sans Mono','Powerline Symbols',monospace" font-size="1.67"><defs><symbol id="1"><text y="1.67" class="c">$</text><text x="2.004" y="1.67" class="c">podman</text></symbol><symbol id="2"><text y="1.67" class="c">$</text><text x="2.004" y="1.67" class="c">podman</text><text x="9.018" y="1.67" class="c">run</text></symbol><symbol id="3"><text y="1.67" class="c">$</text><text x="2.004" y="1.67" class="c">podman</text><text x="9.018" y="1.67" class="c">run</text><text x="13.026" y="1.67" class="c">-p</text></symbol><symbol id="4"><text y="1.67" class="c">$</text><text x="2.004" y="1.67" class="c">podman</text><text x="9.018" y="1.67" class="c">run</text><text x="13.026" y="1.67" class="c">-p</text><text x="16.032" y="1.67" class="c">5000:5000/tcp</text></symbol><symbol id="5"><text y="1.67" class="c">$</text><text x="2.004" y="1.67" class="c">podman</text><text x="9.018" y="1.67" class="c">run</text><text x="13.026" y="1.67" class="c">-p</text><text x="16.032" y="1.67" class="c">5000:5000/tcp</text><text x="30.06" y="1.67" class="c">ghcr.io/project-zot/zot-linux-amd64:latest</text></symbol><symbol id="6"><text y="1.67" class="c">{&quot;level&quot;:&quot;info&quot;,&quot;params&quot;:{&quot;Version&quot;:&quot;1.0.0-dev&quot;,&quot;GoVersion&quot;:&quot;go1.17.5&quot;,&quot;Commit&quot;:&quot;v1.3.8-rc3-38a110314ba3af67f970ed0ac909102edf7208d3&quot;,&quot;BinaryType&quot;:&quot;extended&quot;,&quot;AccessControl&quot;:null,&quot;Storage&quot;:{&quot;Dedupe&quot;:true,&quot;GC&quot;:true,&quot;Commit&quot;:false,&quot;GCDelay&quot;:3600000000000,&quot;RootDirectory&quot;:&quot;/</text></symbol><symbol id="7"><text y="1.67" class="c">var/lib/registry&quot;,&quot;StorageDriver&quot;:null,&quot;SubPaths&quot;:null},&quot;HTTP&quot;:{&quot;Address&quot;:&quot;0.0.0.0&quot;,&quot;Port&quot;:&quot;5000&quot;,&quot;TLS&quot;:null,&quot;Auth&quot;:null,&quot;RawAccessControl&quot;:null,&quot;Realm&quot;:&quot;&quot;,&quot;AllowReadAccess&quot;:false,&quot;ReadOnly&quot;:false,&quot;Ratelimit&quot;:null},&quot;Log&quot;:{&quot;Level&quot;:&quot;debug&quot;,&quot;Output&quot;:&quot;&quot;,&quot;Audit&quot;:&quot;&quot;},&quot;Extensio</text></symbol><symbol id="8"><text y="1.67" class="c">ns&quot;:null},&quot;goroutine&quot;:1,&quot;caller&quot;:&quot;zotregistry.io/zot/pkg/api/controller.go:103&quot;,&quot;time&quot;:&quot;2022-02-18T21:34:23.788994701Z&quot;,&quot;message&quot;:&quot;configuration</text><text x="145.29" y="1.67" class="c">settings&quot;}</text></symbol><symbol id="9"><text y="1.67" class="c">{&quot;level&quot;:&quot;info&quot;,&quot;cpus&quot;:8,&quot;max.</text><text x="31.062" y="1.67" class="c">open</text><text x="36.072" y="1.67" class="c">files&quot;:1048576,&quot;max.</text><text x="57.114" y="1.67" class="c">inotify</text><text x="65.13" y="1.67" class="c">watches&quot;:&quot;2147483647&quot;,&quot;goroutine&quot;:1,&quot;caller&quot;:&quot;zotregistry.io/zot/pkg/api/controller.go:91&quot;,&quot;time&quot;:&quot;2022-02-18T21:34:23.789097866Z&quot;,&quot;message&quot;:&quot;runtime</text><text x="215.43" y="1.67" class="c">params&quot;}</text></symbol><symbol id="10"><text y="1.67" class="c">^C$</text></symbol><symbol id="a"><path fill="transparent" d="M0 0h271v71H0z"/></symbol><symbol id="b"><path fill="#6f7683" d="M0 0h1.102v2.171H0z"/></symbol></defs><path class="a" d="M0 0h271v154.141H0z"/><g style="animation-duration:13.375777s;animation-iteration-count:infinite;animation-name:f;animation-timing-function:steps(1,end)"><svg width="10027"><svg><use xlink:href="#a"/><use xlink:href="#b" x="-.004"/></svg><svg x="271"><use xlink:href="#a"/><use xlink:href="#b" x="1.996"/><text y="1.67" class="c">$</text></svg><svg x="542"><use xlink:href="#a"/><use xlink:href="#b" x="2.996"/><text y="1.67" class="c">$</text><text x="2.004" y="1.67" class="c">p</text></svg><svg x="813"><use xlink:href="#a"/><use xlink:href="#b" x="3.996"/><text y="1.67" class="c">$</text><text x="2.004" y="1.67" class="c">po</text></svg><svg x="1084"><use xlink:href="#a"/><use xlink:href="#b" x="4.996"/><text y="1.67" class="c">$</text><text x="2.004" y="1.67" class="c">pod</text></svg><svg x="1355"><use xlink:href="#a"/><use xlink:href="#b" x="5.996"/><text y="1.67" class="c">$</text><text x="2.004" y="1.67" class="c">podm</text></svg><svg x="1626"><use xlink:href="#a"/><use xlink:href="#b" x="6.996"/><text y="1.67" class="c">$</text><text x="2.004" y="1.67" class="c">podma</text></svg><svg x="1897"><use xlink:href="#a"/><use xlink:href="#b" x="7.996"/><use xlink:href="#1"/></svg><svg x="2168"><use xlink:href="#a"/><use xlink:href="#b" x="8.996"/><use xlink:href="#1"/></svg><svg x="2439"><use xlink:href="#a"/><use xlink:href="#b" x="9.996"/><text y="1.67" class="c">$</text><text x="2.004" y="1.67" class="c">podman</text><text x="9.018" y="1.67" class="c">r</text></svg><svg x="2710"><use xlink:href="#a"/><use xlink:href="#b" x="10.996"/><text y="1.67" class="c">$</text><text x="2.004" y="1.67" class="c">podman</text><text x="9.018" y="1.67" class="c">ru</text></svg><svg x="2981"><use xlink:href="#a"/><use xlink:href="#b" x="11.996"/><use xlink:href="#2"/></svg><svg x="3252"><use xlink:href="#a"/><use xlink:href="#b" x="12.996"/><use xlink:href="#2"/></svg><svg x="3523"><use xlink:href="#a"/><use xlink:href="#b" x="13.996"/><text y="1.67" class="c">$</text><text x="2.004" y="1.67" class="c">podman</text><text x="9.018" y="1.67" class="c">run</text><text x="13.026" y="1.67" class="c">-</text></svg><svg x="3794"><use xlink:href="#a"/><use xlink:href="#b" x="14.996"/><use xlink:href="#3"/></svg><svg x="4065"><use xlink:href="#a"/><use xlink:href="#b" x="15.996"/><use xlink:href="#3"/></svg><svg x="4336"><use xlink:href="#a"/><use xlink:href="#b" x="16.996"/><text y="1.67" class="c">$</text><text x="2.004" y="1.67" class="c">podman</text><text x="9.018" y="1.67" class="c">run</text><text x="13.026" y="1.67" class="c">-p</text><text x="16.032" y="1.67" class="c">5</text></svg><svg x="4607"><use xlink:href="#a"/><use xlink:href="#b" x="17.996"/><text y="1.67" class="c">$</text><text x="2.004" y="1.67" class="c">podman</text><text x="9.018" y="1.67" class="c">run</text><text x="13.026" y="1.67" class="c">-p</text><text x="16.032" y="1.67" class="c">50</text></svg><svg x="4878"><use xlink:href="#a"/><use xlink:href="#b" x="18.996"/><text y="1.67" class="c">$</text><text x="2.004" y="1.67" class="c">podman</text><text x="9.018" y="1.67" class="c">run</text><text x="13.026" y="1.67" class="c">-p</text><text x="16.032" y="1.67" class="c">500</text></svg><svg x="5149"><use xlink:href="#a"/><use xlink:href="#b" x="19.996"/><text y="1.67" class="c">$</text><text x="2.004" y="1.67" class="c">podman</text><text x="9.018" y="1.67" class="c">run</text><text x="13.026" y="1.67" class="c">-p</text><text x="16.032" y="1.67" class="c">5000</text></svg><svg x="5420"><use xlink:href="#a"/><use xlink:href="#b" x="20.996"/><text y="1.67" class="c">$</text><text x="2.004" y="1.67" class="c">podman</text><text x="9.018" y="1.67" class="c">run</text><text x="13.026" y="1.67" class="c">-p</text><text x="16.032" y="1.67" class="c">5000:</text></svg><svg x="5691"><use xlink:href="#a"/><use xlink:href="#b" x="21.996"/><text y="1.67" class="c">$</text><text x="2.004" y="1.67" class="c">podman</text><text x="9.018" y="1.67" class="c">run</text><text x="13.026" y="1.67" class="c">-p</text><text x="16.032" y="1.67" class="c">5000:5</text></svg><svg x="5962"><use xlink:href="#a"/><use xlink:href="#b" x="22.996"/><text y="1.67" class="c">$</text><text x="2.004" y="1.67" class="c">podman</text><text x="9.018" y="1.67" class="c">run</text><text x="13.026" y="1.67" class="c">-p</text><text x="16.032" y="1.67" class="c">5000:50</text></svg><svg x="6233"><use xlink:href="#a"/><use xlink:href="#b" x="23.996"/><text y="1.67" class="c">$</text><text x="2.004" y="1.67" class="c">podman</text><text x="9.018" y="1.67" class="c">run</text><text x="13.026" y="1.67" class="c">-p</text><text x="16.032" y="1.67" class="c">5000:500</text></svg><svg x="6504"><use xlink:href="#a"/><use xlink:href="#b" x="24.996"/><text y="1.67" class="c">$</text><text x="2.004" y="1.67" class="c">podman</text><text x="9.018" y="1.67" class="c">run</text><text x="13.026" y="1.67" class="c">-p</text><text x="16.032" y="1.67" class="c">5000:5000</text></svg><svg x="6775"><use xlink:href="#a"/><use xlink:href="#b" x="25.996"/><text y="1.67" class="c">$</text><text x="2.004" y="1.67" class="c">podman</text><text x="9.018" y="1.67" class="c">run</text><text x="13.026" y="1.67" class="c">-p</text><text x="16.032" y="1.67" class="c">5000:5000/</text></svg><svg x="7046"><use xlink:href="#a"/><use xlink:href="#b" x="26.996"/><text y="1.67" class="c">$</text><text x="2.004" y="1.67" class="c">podman</text><text x="9.018" y="1.67" class="c">run</text><text x="13.026" y="1.67" class="c">-p</text><text x="16.032" y="1.67" class="c">5000:5000/t</text></svg><svg x="7317"><use xlink:href="#a"/><use xlink:href="#b" x="27.996"/><text y="1.67" class="c">$</text><text x="2.004" y="1.67" class="c">podman</text><text x="9.018" y="1.67" class="c">run</text><text x="13.026" y="1.67" class="c">-p</text><text x="16.032" y="1.67" class="c">5000:5000/tc</text></svg><svg x="7588"><use xlink:href="#a"/><use xlink:href="#b" x="28.996"/><use xlink:href="#4"/></svg><svg x="7859"><use xlink:href="#a"/><use xlink:href="#b" x="29.996"/><use xlink:href="#4"/></svg><svg x="8130"><use xlink:href="#a"/><use xlink:href="#b" x="71.996"/><text y="1.67" class="c">$</text><text x="2.004" y="1.67" class="c">podman</text><text x="9.018" y="1.67" class="c">run</text><text x="13.026" y="1.67" class="c">-p</text><text x="16.032" y="1.67" class="c">5000:5000/tcp</text><path fill="#b9c0cb" d="M30.06 0h42v2.171h-42z"/><text x="30.06" y="1.67" style="white-space:pre" fill="#282d35">ghcr.io/project-zot/zot-linux-amd64:latest</text></svg><svg x="8401"><use xlink:href="#a"/><use xlink:href="#b" x="-.004" y="2.146"/><use xlink:href="#5"/></svg><svg x="8672"><use xlink:href="#a"/><use xlink:href="#b" x="-.004" y="10.83"/><use xlink:href="#5"/><use xlink:href="#6" y="2.171"/><use xlink:href="#7" y="4.342"/><use xlink:href="#8" y="6.513"/><use xlink:href="#9" y="8.684"/></svg><svg x="8943"><use xlink:href="#a"/><use xlink:href="#b" x="-.004" y="13.001"/><use xlink:href="#5"/><use xlink:href="#6" y="2.171"/><use xlink:href="#7" y="4.342"/><use xlink:href="#8" y="6.513"/><use xlink:href="#9" y="8.684"/></svg><svg x="9214"><use xlink:href="#a"/><use xlink:href="#b" x="1.996" y="13.001"/><use xlink:href="#5"/><use xlink:href="#6" y="2.171"/><use xlink:href="#7" y="4.342"/><use xlink:href="#8" y="6.513"/><use xlink:href="#9" y="8.684"/><text y="14.696" class="c">^C</text></svg><svg x="9485"><use xlink:href="#a"/><use xlink:href="#b" x="3.996" y="13.001"/><use xlink:href="#5"/><use xlink:href="#6" y="2.171"/><use xlink:href="#7" y="4.342"/><use xlink:href="#8" y="6.513"/><use xlink:href="#9" y="8.684"/><use xlink:href="#10" y="13.026"/></svg><svg x="9756"><use xlink:href="#a"/><use xlink:href="#b" x="-.004" y="17.343"/><use xlink:href="#5"/><use xlink:href="#6" y="2.171"/><use xlink:href="#7" y="4.342"/><use xlink:href="#8" y="6.513"/><use xlink:href="#9" y="8.684"/><use xlink:href="#10" y="13.026"/><text y="16.867" class="c">exit</text></svg></svg></g></g></svg></svg>